<?xml version="1.0" encoding="UTF-8" standalone="no"?>
<!-- Created with Inkscape (http://www.inkscape.org/) -->

<svg
   width="297mm"
   height="210mm"
   viewBox="0 0 297 210"
   version="1.1"
   id="svg1"
   xml:space="preserve"
   inkscape:version="1.3.2 (091e20e, 2023-11-25)"
   sodipodi:docname="drawing.svg"
   xmlns:inkscape="http://www.inkscape.org/namespaces/inkscape"
   xmlns:sodipodi="http://sodipodi.sourceforge.net/DTD/sodipodi-0.dtd"
   xmlns="http://www.w3.org/2000/svg"
   xmlns:svg="http://www.w3.org/2000/svg"><sodipodi:namedview
     id="namedview1"
     pagecolor="#ffffff"
     bordercolor="#000000"
     borderopacity="0.25"
     inkscape:showpageshadow="2"
     inkscape:pageopacity="0.0"
     inkscape:pagecheckerboard="0"
     inkscape:deskcolor="#d1d1d1"
     inkscape:document-units="mm"
     showguides="true"
     inkscape:zoom="0.78037973"
     inkscape:cx="566.39093"
     inkscape:cy="342.78184"
     inkscape:window-width="1440"
     inkscape:window-height="900"
     inkscape:window-x="0"
     inkscape:window-y="0"
     inkscape:window-maximized="0"
     inkscape:current-layer="layer1" /><defs
     id="defs1"><marker
       style="overflow:visible"
       id="ConcaveTriangle"
       refX="0"
       refY="0"
       orient="auto-start-reverse"
       inkscape:stockid="Concave triangle arrow"
       markerWidth="1"
       markerHeight="1"
       viewBox="0 0 1 1"
       inkscape:isstock="true"
       inkscape:collect="always"
       preserveAspectRatio="xMidYMid"><path
         transform="scale(0.7)"
         d="M -2,-4 9,0 -2,4 c 2,-2.33 2,-5.66 0,-8 z"
         style="fill:context-stroke;fill-rule:evenodd;stroke:none"
         id="path7" /></marker></defs><g
     inkscape:label="Layer 1"
     inkscape:groupmode="layer"
     id="layer1"
     style="fill:#000000"><path
       style="fill:#000000;stroke-width:0.264583"
       d="m 119.93886,124.47437 42.83531,-0.40316"
       id="path1" /><path
       style="fill:#000000;stroke-width:0.264583"
       d="m 117.41914,123.16411 45.95976,-0.30237"
       id="path2" /><path
       style="fill:#000000;stroke:#000000;stroke-width:1.228;stroke-dasharray:none;stroke-dashoffset:0;stroke-opacity:1;marker-end:url(#ConcaveTriangle)"
       d="M 22.739855,97.591243 H 251.67314"
       id="path3-9" /><path
       style="fill:#000000;stroke-width:0.558978"
       d="m 140.21669,97.549684 0.84656,-0.408046 4.77196,-3.872099 5.76473,-4.12381 0.41038,-0.285926 0.41037,-0.285926 0.95373,1.315563 0.95372,1.315569 0.67693,-0.208148 0.67693,-0.208149 0.18453,-0.05897 0.18453,-0.05897 -0.23012,-0.875314 -0.23011,-0.875308 0.0455,-0.231044 0.0455,-0.231038 1.832,-1.683428 1.83199,-1.683427 0.50603,0.699759 0.50603,0.699764 0.10959,-0.112615 0.1096,-0.112615 1.48459,-1.950461 1.4846,-1.950457 0.34,-1.015351 0.34,-1.015347 0.90559,-0.726134 0.90559,-0.726135 0.6538,-0.526469 0.65379,-0.526474 0.26433,1.083747 0.26434,1.083746 0.14654,0.507787 0.14654,0.507786 1.06205,0.230949 1.06204,0.230954 0.91654,1.051342 0.91654,1.051336 0.35266,-0.53621 0.35267,-0.53621 3.26194,-5.433423 3.26196,-5.433424 0.0408,-0.04349 0.0408,-0.04349 0.66418,1.088391 0.66419,1.088396 0.88298,1.21685 0.88298,1.216849 0.65294,0.0021 0.65293,0.0021 1.13765,1.149377 1.13767,1.149382 0.17193,0.08498 0.17194,0.08498 1.65756,0.176097 1.65755,0.176097 1.40401,2.583289 1.40401,2.583285 0.68633,-0.789416 0.68634,-0.789417 h 0.14159 0.1416 l 1.85771,1.155501 1.8577,1.155495 1.46386,-0.103784 1.46384,-0.103785 2.56612,2.222276 2.5661,2.222271 h 0.13031 0.1303 l 1.53504,-0.63653 1.53504,-0.636535 0.11829,0.114089 0.11829,0.114089 0.67358,1.826347 0.67356,1.826346 4.40789,2.271704 4.57599,3.577013 z m 25.37395,-8.828703 0.68902,-1.306101 v -1.071009 -1.071004 l 0.47259,-1.240645 0.4726,-1.24064 -0.25875,-1.258395 -0.25873,-1.258396 -0.0961,-0.234623 -0.0961,-0.234624 -0.81609,0.582921 -0.81609,0.582916 -0.008,0.975581 -0.008,0.97558 -2.36846,4.527501 -2.36847,4.527506 -0.38039,0.751389 -0.38038,0.751393 0.92511,-0.0858 0.92513,-0.0858 0.11302,1.215212 0.11303,1.215212 0.0766,0.112099 0.0767,0.112099 1.65144,-2.96813 1.65146,-2.96813 z m -18.16477,6.606843 1.47802,-0.07649 1.70028,-0.937848 1.70029,-0.937842 -0.0674,-0.211429 -0.0674,-0.211434 -0.1073,-1.358358 -0.10731,-1.358352 -0.0991,3.9e-4 -0.0991,3.95e-4 -3.29705,2.526264 -3.29705,2.526263 -0.0518,0.119155 -0.0518,0.119149 0.44438,-0.06169 0.44437,-0.06168 z m 63.63059,-0.995343 1.30338,-0.361777 0.13125,-0.109945 0.13123,-0.109946 -1.23025,-0.782876 -1.23026,-0.782881 -0.70652,-1.18265 -0.70651,-1.18265 -0.2355,0.0098 -0.23549,0.0098 -0.90471,0.372456 -0.9047,0.372455 1.58206,2.054947 1.58207,2.054952 h 0.0603 0.0603 z m -51.82067,-4.932345 0.88475,-1.528335 -0.46154,-0.645798 -0.46153,-0.645792 -1.28673,1.090176 -1.28673,1.090176 -0.12952,0.0934 -0.12951,0.09339 0.18964,0.85533 0.18963,0.855331 0.33239,0.06224 0.33238,0.06225 0.31401,0.05892 0.31401,0.05892 0.157,0.01406 0.157,0.01406 z m 44.70138,1.238865 0.97994,-0.293656 -0.0467,-0.112662 -0.0467,-0.112663 -2.19803,-2.094838 -2.19804,-2.094844 -0.62801,0.0053 -0.628,0.0053 -0.9263,0.102374 -0.92629,0.102368 -1.455,-1.019696 -1.45499,-1.019701 h -0.13775 -0.13772 l -0.59531,0.692682 -0.59529,0.692677 1.45112,1.755187 1.45111,1.755187 0.56138,0.338504 0.5614,0.338508 h 0.19905 0.19905 v -1.044844 -1.044892 h 0.0777 0.0777 l 2.61158,1.671823 2.61156,1.671822 h 0.10628 0.10627 z m -15.9826,-4.686979 -0.45451,-1.079719 -0.54583,-1.288698 -0.54582,-1.288694 h 0.051 0.0509 l 1.45392,0.34527 1.45393,0.345269 0.0519,-0.04607 0.0519,-0.04607 -2.02703,-1.309261 -2.02705,-1.309266 -0.8194,-1.235285 -0.8194,-1.235285 -0.89322,0.08967 -0.89323,0.08968 -1.37339,-1.810797 -1.37339,-1.810792 -0.11809,-0.06476 -0.11808,-0.06476 -2.31424,4.257845 -2.31424,4.257845 0.0574,0.05097 0.0574,0.05097 1.44563,-0.904533 1.44563,-0.904532 h 0.13039 0.1304 l 1.22885,1.880803 1.22883,1.880798 h 0.12702 0.12702 l 0.0155,-1.149377 0.0156,-1.149377 0.10216,-0.715145 0.10227,-0.71514 3.76806,2.97318 3.76806,2.973175 0.11383,0.0059 0.11382,0.0059 z"
       id="path4"
       sodipodi:nodetypes="ccccccccccccccccccccccccccccccccccccccccccccccccccccccccccccccccccccccccccccccccccccccccccccccccccccccccccccccccccccccccccccccccccccccccccccccccccccccccccccccccccccccccccccccccccccccccccccccccccccccccccccccccccccccccccccccccccccc" /><path
       style="fill:#000000;stroke-width:0.385574"
       d="m 113.34843,86.211805 0.004,-0.190697 0.12954,-1.307637 0.12955,-1.307636 -0.0232,-0.02829 -0.0232,-0.02829 -0.94619,0.222966 -0.94619,0.222966 -1.4293,0.26845 -1.4293,0.26845 -0.67185,-5.76e-4 -0.67186,-5.77e-4 -0.25217,-0.190123 -0.25216,-0.190124 -1.21144,-1.253151 -1.21144,-1.253151 0.69955,-0.185207 0.69954,-0.185207 0.47754,0.342341 0.47754,0.34234 0.42978,0.260984 0.42978,0.260984 0.6208,-0.058 0.62079,-0.058 2.10784,-0.599282 2.10784,-0.599282 1.99897,-0.61316 1.99896,-0.61316 2.40725,-0.700498 2.40724,-0.700497 0.45797,0.0013 0.45797,0.0013 0.40143,0.261896 0.40144,0.261897 0.51295,0.170138 0.51294,0.170138 0.16769,0.211406 0.16768,0.211406 -0.0998,0.2128 -0.0998,0.2128 -0.34076,0.184492 -0.34075,0.184491 -0.78476,0.27176 -0.78475,0.271759 -2.67408,0.754424 -2.67407,0.754425 -0.0956,0.146047 -0.0956,0.146047 -0.92431,1.354481 -0.92432,1.354482 -0.32948,0.362624 -0.32949,0.362625 -0.36982,0.0979 -0.36982,0.0979 -0.26264,0.0026 -0.26265,0.0026 z m -1.22336,-6.631085 -0.40204,-0.690915 0.16595,-0.09788 0.16594,-0.09788 0.50324,-0.1443 0.50324,-0.144301 0.35633,0.146169 0.35632,0.14617 0.7163,0.377767 0.71631,0.377767 -0.0955,0.03829 -0.0955,0.03829 -1.24427,0.370875 -1.24427,0.370874 z"
       id="path5" /><path
       style="fill:#000000;stroke:#000000;stroke-width:1.228;stroke-dasharray:none;stroke-dashoffset:0;stroke-opacity:1"
       d="M 94.7235 91.3804 L 94.7521 91.3777 L 94.7806 91.375 L 94.8081 91.3724 L 94.8367 91.3697 L 94.8652 91.367 L 94.8926 91.3644 L 94.9214 91.3617 L 94.9501 91.3589 L 94.9777 91.3563 L 95.0064 91.3536 L 95.035 91.3508 L 95.0625 91.3482 L 95.0911 91.3455 L 95.1196 91.3428 L 95.147 91.3402 L 95.1759 91.3375 L 95.2046 91.3347 L 95.2323 91.3321 L 95.261 91.3294 L 95.2896 91.3266 L 95.3171 91.324 L 95.3458 91.3213 L 95.3743 91.3186 L 95.4018 91.316 L 95.4307 91.3133 L 95.4594 91.3105 L 95.4871 91.3079 L 95.5158 91.3052 L 95.5443 91.3025 L 95.5718 91.2999 L 95.6004 91.2972 L 95.6288 91.2945 L 95.6562 91.2919 L 95.685 91.2892 L 95.7137 91.2864 L 95.7414 91.2838 L 95.77 91.2811 L 95.7985 91.2784 L 95.826 91.2758 L 95.8546 91.2731 L 95.883 91.2704 L 95.9104 91.2678 L 95.9392 91.2651 L 95.9679 91.2623 L 95.9955 91.2597 L 96.0242 91.257 L 96.0527 91.2543 L 96.0802 91.2517 L 96.1088 91.249 L 96.1373 91.2463 L 96.1647 91.2437 L 96.1935 91.241 L 96.2222 91.2382 L 96.2499 91.2356 L 96.2786 91.2329 L 96.3072 91.2301 L 96.3347 91.2275 L 96.3633 91.2248 L 96.3918 91.2221 L 96.4192 91.2195 L 96.4481 91.2168 L 96.4768 91.214 L 96.5045 91.2114 L 96.5331 91.2087 L 96.5616 91.206 L 96.5891 91.2034 L 96.6177 91.2007 L 96.6462 91.198 L 96.6736 91.1954 L 96.7024 91.1927 L 96.7311 91.1899 L 96.7587 91.1873 L 96.7873 91.1846 L 96.8158 91.1819 L 96.8433 91.1793 L 96.8718 91.1766 L 96.9002 91.1739 L 96.9276 91.1713 L 96.9564 91.1686 L 96.9851 91.1658 L 97.0127 91.1632 L 97.0414 91.1605 L 97.0699 91.1578 L 97.0974 91.1552 L 97.126 91.1525 L 97.1544 91.1498 L 97.1818 91.1472 L 97.2106 91.1445 L 97.2393 91.1417 L 97.267 91.1391 L 97.2957 91.1364 L 97.3242 91.1336 L 97.3517 91.131 L 97.3803 91.1283 L 97.4088 91.1256 L 97.4363 91.123 L 97.4651 91.1203 L 97.4938 91.1175 L 97.5215 91.1149 L 97.5501 91.1122 L 97.5786 91.1095 L 97.6061 91.1069 L 97.6347 91.1042 L 97.6631 91.1015 L 97.6905 91.0989 L 97.7193 91.0962 L 97.748 91.0934 L 97.7756 91.0908 L 97.8042 91.0881 L 97.8327 91.0854 L 97.8602 91.0828 L 97.8888 91.0801 L 97.9172 91.0774 L 97.9446 91.0748 L 97.9734 91.0721 L 98.0021 91.0693 L 98.0297 91.0667 L 98.0584 91.064 L 98.0869 91.0612 L 98.1144 91.0586 L 98.143 91.0559 L 98.1715 91.0532 L 98.199 91.0506 L 98.2278 91.0479 L 98.2565 91.0451 L 98.2842 91.0425 L 98.3129 91.0398 L 98.3415 91.037 L 98.369 91.0344 L 98.3976 91.0317 L 98.4261 91.029 L 98.4536 91.0264 L 98.4825 91.0237 L 98.5112 91.0209 L 98.5389 91.0183 L 98.5675 91.0156 L 98.596 91.0129 L 98.6235 91.0103 L 98.6521 91.0076 L 98.6806 91.0049 L 98.708 91.0023 L 98.7368 90.9996 L 98.7655 90.9968 L 98.7931 90.9942 L 98.8218 90.9915 L 98.8503 90.9888 L 98.8778 90.9862 L 98.9064 90.9835 L 98.9348 90.9808 L 98.9622 90.9782 L 98.991 90.9755 L 99.0197 90.9727 L 99.0474 90.9701 L 99.0761 90.9674 L 99.1047 90.9646 L 99.1322 90.962 L 99.1608 90.9593 L 99.1893 90.9566 L 99.2167 90.954 L 99.2456 90.9513 L 99.2743 90.9485 L 99.302 90.9459 L 99.3307 90.9432 L 99.3593 90.9404 L 99.3869 90.9378 L 99.4155 90.9351 L 99.444 90.9324 L 99.4715 90.9298 L 99.5004 90.9271 L 99.5292 90.9243 L 99.5569 90.9217 L 99.5856 90.919 L 99.6141 90.9163 L 99.6416 90.9137 L 99.6702 90.911 L 99.6987 90.9083 L 99.7261 90.9057 L 99.7549 90.903 L 99.7836 90.9002 L 99.8113 90.8976 L 99.84 90.8949 L 99.8686 90.8921 L 99.8961 90.8895 L 99.9247 90.8868 L 99.9532 90.8841 L 99.9807 90.8815 L 100.01 90.8788 L 100.038 90.876 L 100.066 90.8734 L 100.095 90.8707 L 100.123 90.868 L 100.151 90.8654 L 100.179 90.8627 L 100.208 90.86 L 100.235 90.8574 L 100.264 90.8547 L 100.292 90.8519 L 100.32 90.8493 L 100.349 90.8466 L 100.377 90.8438 L 100.405 90.8412 L 100.434 90.8385 L 100.462 90.8358 L 100.49 90.8332 L 100.519 90.8305 L 100.547 90.8277 L 100.575 90.8251 L 100.604 90.8224 L 100.632 90.8196 L 100.66 90.817 L 100.689 90.8143 L 100.717 90.8116 L 100.745 90.809 L 100.774 90.8063 L 100.802 90.8035 L 100.83 90.8009 L 100.859 90.7982 L 100.887 90.7955 L 100.915 90.7929 L 100.943 90.7902 L 100.972 90.7875 L 100.999 90.7849 L 101.028 90.7822 L 101.056 90.7794 L 101.084 90.7768 L 101.113 90.7741 L 101.141 90.7714 L 101.169 90.7688 L 101.198 90.7661 L 101.226 90.7634 L 101.254 90.7608 L 101.283 90.7581 L 101.311 90.7553 L 101.339 90.7527 L 101.368 90.75 L 101.396 90.7472 L 101.424 90.7446 L 101.453 90.7419 L 101.481 90.7392 L 101.509 90.7366 L 101.538 90.7339 L 101.566 90.7311 L 101.594 90.7285 L 101.623 90.7258 L 101.651 90.7231 L 101.679 90.7205 L 101.707 90.7178 L 101.736 90.7151 L 101.763 90.7125 L 101.792 90.7098 L 101.82 90.707 L 101.848 90.7044 L 101.877 90.7017 L 101.905 90.699 L 101.933 90.6964 L 101.961 90.6937 L 101.99 90.691 L 102.017 90.6884 L 102.046 90.6857 L 102.074 90.6829 L 102.102 90.6803 L 102.131 90.6776 L 102.159 90.6748 L 102.187 90.6722 L 102.216 90.6695 L 102.244 90.6668 L 102.272 90.6642 L 102.301 90.6615 L 102.329 90.6587 L 102.357 90.6561 L 102.386 90.6534 L 102.414 90.6506 L 102.442 90.648 L 102.471 90.6453 L 102.499 90.6426 L 102.527 90.64 L 102.556 90.6373 L 102.584 90.6345 L 102.612 90.6319 L 102.641 90.6292 L 102.669 90.6265 L 102.697 90.6239 L 102.725 90.6212 L 102.754 90.6185 L 102.781 90.6159 L 102.81 90.6132 L 102.838 90.6104 L 102.866 90.6078 L 102.895 90.6051 L 102.923 90.6023 L 102.951 90.5997 L 102.98 90.597 L 103.008 90.5943 L 103.036 90.5917 L 103.065 90.589 L 103.093 90.5862 L 103.121 90.5836 L 103.15 90.5809 L 103.178 90.5782 L 103.206 90.5756 L 103.234 90.5729 L 103.263 90.5702 L 103.29 90.5676 L 103.319 90.5649 L 103.347 90.5621 L 103.375 90.5595 L 103.404 90.5568 L 103.432 90.554 L 103.46 90.5514 L 103.489 90.5487 L 103.517 90.546 L 103.545 90.5434 L 103.574 90.5407 L 103.602 90.5379 L 103.63 90.5353 L 103.659 90.5326 L 103.687 90.5298 L 103.715 90.5272 L 103.744 90.5245 L 103.772 90.5218 L 103.8 90.5192 L 103.829 90.5165 L 103.857 90.5137 L 103.885 90.5111 L 103.914 90.5084 L 103.942 90.5057 L 103.97 90.5031 L 103.998 90.5004 L 104.027 90.4977 L 104.054 90.4951 L 104.083 90.4924 L 104.111 90.4896 L 104.139 90.487 L 104.168 90.4843 L 104.196 90.4816 L 104.224 90.479 L 104.252 90.4763 L 104.281 90.4736 L 104.308 90.471 L 104.337 90.4683 L 104.365 90.4655 L 104.393 90.4629 L 104.422 90.4602 L 104.45 90.4574 L 104.478 90.4548 L 104.507 90.4521 L 104.535 90.4494 L 104.563 90.4468 L 104.592 90.4441 L 104.62 90.4413 L 104.648 90.4387 L 104.677 90.436 L 104.705 90.4333 L 104.733 90.4307 L 104.761 90.428 L 104.79 90.4253 L 104.817 90.4227 L 104.846 90.42 L 104.874 90.4172 L 104.902 90.4146 L 104.931 90.4119 L 104.959 90.4092 L 104.987 90.4066 L 105.015 90.4039 L 105.044 90.4012 L 105.071 90.3986 L 105.1 90.3959 L 105.128 90.3931 L 105.156 90.3905 L 105.185 90.3878 L 105.213 90.385 L 105.241 90.3824 L 105.27 90.3797 L 105.298 90.377 L 105.326 90.3744 L 105.355 90.3717 L 105.383 90.3689 L 105.411 90.3663 L 105.44 90.3636 L 105.468 90.3608 L 105.496 90.3582 L 105.525 90.3555 L 105.553 90.3528 L 105.581 90.3502 L 105.61 90.3475 L 105.638 90.3447 L 105.666 90.3421 L 105.695 90.3394 L 105.723 90.3367 L 105.751 90.3341 L 105.779 90.3314 L 105.808 90.3287 L 105.835 90.3261 L 105.864 90.3234 L 105.892 90.3206 L 105.92 90.318 L 105.949 90.3153 L 105.977 90.3126 L 106.005 90.31 L 106.033 90.3073 L 106.062 90.3046 L 106.089 90.302 L 106.118 90.2993 L 106.146 90.2965 L 106.174 90.2939 L 106.203 90.2912 L 106.231 90.2885 L 106.259 90.2859 L 106.287 90.2832 L 106.316 90.2805 L 106.343 90.2779 L 106.372 90.2752 L 106.4 90.2724 L 106.428 90.2698 L 106.457 90.2671 L 106.485 90.2643 L 106.513 90.2617 L 106.542 90.259 L 106.57 90.2563 L 106.598 90.2537 L 106.627 90.251 L 106.655 90.2482 L 106.683 90.2456 L 106.712 90.2429 L 106.74 90.2402 L 106.768 90.2376 L 106.796 90.2349 L 106.825 90.2322 L 106.852 90.2296 L 106.881 90.2269 L 106.909 90.2241 L 106.937 90.2215 L 106.966 90.2188 L 106.994 90.2161 L 107.022 90.2135 L 107.05 90.2108 L 107.079 90.2081 L 107.106 90.2055 L 107.135 90.2028 L 107.163 90.2 L 107.191 90.1974 L 107.22 90.1947 L 107.248 90.192 L 107.276 90.1894 L 107.304 90.1867 L 107.333 90.184 L 107.36 90.1814 L 107.389 90.1787 L 107.417 90.1759 L 107.445 90.1733 L 107.474 90.1706 L 107.502 90.1678 L 107.53 90.1652 L 107.559 90.1625 L 107.587 90.1598 L 107.615 90.1572 L 107.644 90.1545 L 107.672 90.1517 L 107.7 90.1491 L 107.729 90.1464 L 107.757 90.1437 L 107.785 90.1411 L 107.813 90.1384 L 107.842 90.1357 L 107.869 90.1331 L 107.898 90.1304 L 107.926 90.1276 L 107.954 90.125 L 107.983 90.1223 L 108.011 90.1196 L 108.039 90.117 L 108.067 90.1143 L 108.096 90.1116 L 108.123 90.109 L 108.152 90.1063 L 108.18 90.1035 L 108.208 90.1009 L 108.237 90.0982 L 108.265 90.0954 L 108.293 90.0928 L 108.322 90.0901 L 108.35 90.0874 L 108.378 90.0848 L 108.407 90.0821 L 108.435 90.0793 L 108.463 90.0767 L 108.492 90.074 L 108.52 90.0712 L 108.548 90.0686 L 108.577 90.0659 L 108.605 90.0632 L 108.633 90.0606 L 108.662 90.0579 L 108.69 90.0551 L 108.718 90.0525 L 108.747 90.0498 L 108.775 90.0471 L 108.803 90.0445 L 108.831 90.0418 L 108.86 90.0391 L 108.887 90.0365 L 108.916 90.0338 L 108.944 90.031 L 108.972 90.0284 L 109.001 90.0257 L 109.029 90.023 L 109.057 90.0204 L 109.085 90.0177 L 109.114 90.015 L 109.141 90.0124 L 109.17 90.0097 L 109.198 90.0069 L 109.226 90.0043 L 109.255 90.0016 L 109.283 89.9988 L 109.311 89.9962 L 109.34 89.9935 L 109.368 89.9908 L 109.396 89.9882 L 109.425 89.9855 L 109.453 89.9827 L 109.481 89.9801 L 109.51 89.9774 L 109.538 89.9746 L 109.566 89.972 L 109.595 89.9693 L 109.623 89.9666 L 109.651 89.964 L 109.68 89.9613 L 109.708 89.9585 L 109.736 89.9559 L 109.765 89.9532 L 109.793 89.9505 L 109.821 89.9479 L 109.849 89.9452 L 109.878 89.9425 L 109.905 89.9399 L 109.934 89.9372 L 109.962 89.9344 L 109.99 89.9318 L 110.019 89.9291 L 110.047 89.9263 L 110.075 89.9237 L 110.104 89.921 L 110.132 89.9183 L 110.16 89.9157 L 110.189 89.913 L 110.217 89.9102 L 110.245 89.9076 L 110.274 89.9049 L 110.302 89.9022 L 110.33 89.8996 L 110.358 89.8969 L 110.387 89.8942 L 110.414 89.8916 L 110.443 89.8889 L 110.471 89.8861 L 110.499 89.8835 L 110.528 89.8808 L 110.556 89.878 L 110.584 89.8754 L 110.613 89.8727 L 110.641 89.87 L 110.669 89.8674 L 110.698 89.8647 L 110.726 89.8619 L 110.754 89.8593 L 110.783 89.8566 L 110.811 89.8538 L 110.839 89.8512 L 110.868 89.8485 L 110.896 89.8458 L 110.924 89.8432 L 110.953 89.8405 L 110.981 89.8377 L 111.009 89.8351 L 111.038 89.8324 L 111.066 89.8297 L 111.094 89.8271 L 111.122 89.8244 L 111.151 89.8217 L 111.178 89.8191 L 111.207 89.8164 L 111.235 89.8136 L 111.263 89.811 L 111.292 89.8083 L 111.32 89.8055 L 111.348 89.8029 L 111.377 89.8002 L 111.405 89.7975 L 111.433 89.7949 L 111.462 89.7922 L 111.49 89.7894 L 111.518 89.7868 L 111.547 89.7841 L 111.575 89.7813 L 111.603 89.7787 L 111.632 89.776 L 111.66 89.7733 L 111.688 89.7707 L 111.717 89.768 L 111.745 89.7652 L 111.773 89.7626 L 111.802 89.7599 L 111.83 89.7572 L 111.858 89.7546 L 111.886 89.7519 L 111.915 89.7492 L 111.942 89.7466 L 111.971 89.7439 L 111.999 89.7411 L 112.027 89.7385 L 112.056 89.7358 L 112.084 89.7331 L 112.112 89.7305 L 112.14 89.7278 L 112.169 89.7251 L 112.196 89.7225 L 112.225 89.7198 L 112.253 89.717 L 112.281 89.7144 L 112.31 89.7117 L 112.338 89.7089 L 112.366 89.7063 L 112.395 89.7036 L 112.423 89.7009 L 112.451 89.6983 L 112.48 89.6956 L 112.508 89.6928 L 112.536 89.6902 L 112.565 89.6875 L 112.593 89.6847 L 112.621 89.6821 L 112.65 89.6794 L 112.678 89.6767 L 112.706 89.6741 L 112.735 89.6714 L 112.763 89.6686 L 112.791 89.666 L 112.82 89.6633 L 112.848 89.6606 L 112.876 89.658 L 112.904 89.6553 L 112.933 89.6526 L 112.96 89.65 L 112.989 89.6473 L 113.017 89.6445 L 113.045 89.6419 L 113.074 89.6392 L 113.102 89.6365 L 113.13 89.6339 L 113.158 89.6312 L 113.187 89.6285 L 113.214 89.6259 L 113.243 89.6232 L 113.271 89.6204 L 113.299 89.6178 L 113.328 89.6151 L 113.356 89.6123 L 113.384 89.6097 L 113.413 89.607 L 113.441 89.6043 L 113.469 89.6017 L 113.498 89.599 L 113.526 89.5962 L 113.554 89.5936 L 113.583 89.5909 L 113.611 89.5881 L 113.639 89.5855 L 113.668 89.5828 L 113.696 89.5801 L 113.724 89.5775 L 113.753 89.5748 L 113.781 89.572 L 113.809 89.5694 L 113.838 89.5667 L 113.866 89.564 L 113.894 89.5614 L 113.922 89.5587 L 113.951 89.556 L 113.978 89.5534 L 114.007 89.5507 L 114.035 89.5479 L 114.063 89.5453 L 114.092 89.5426 L 114.12 89.5399 L 114.148 89.5373 L 114.176 89.5346 L 114.205 89.5319 L 114.232 89.5293 L 114.261 89.5266 L 114.289 89.5238 L 114.317 89.5212 L 114.346 89.5185 L 114.374 89.5157 L 114.402 89.5131 L 114.431 89.5104 L 114.459 89.5077 L 114.487 89.5051 L 114.516 89.5024 L 114.544 89.4996 L 114.572 89.497 L 114.601 89.4943 L 114.629 89.4915 L 114.657 89.4889 L 114.686 89.4862 L 114.714 89.4835 L 114.742 89.4809 L 114.771 89.4782 L 114.799 89.4754 L 114.827 89.4728 L 114.856 89.4701 L 114.884 89.4674 L 114.912 89.4648 L 114.94 89.4621 L 114.969 89.4594 L 114.996 89.4568 L 115.025 89.4541 L 115.053 89.4513 L 115.081 89.4487 L 115.11 89.446 L 115.138 89.4433 L 115.166 89.4407 L 115.194 89.438 L 115.223 89.4353 L 115.25 89.4327 L 115.279 89.43 L 115.307 89.4272 L 115.335 89.4246 L 115.364 89.4219 L 115.392 89.4191 L 115.42 89.4165 L 115.449 89.4138 L 115.477 89.4111 L 115.505 89.4085 L 115.534 89.4058 L 115.562 89.403 L 115.59 89.4004 L 115.619 89.3977 L 115.647 89.3949 L 115.675 89.3923 L 115.704 89.3896 L 115.732 89.3869 L 115.76 89.3843 L 115.789 89.3816 L 115.817 89.3788 L 115.845 89.3762 L 115.874 89.3735 L 115.902 89.3708 L 115.93 89.3682 L 115.958 89.3655 L 115.987 89.3628 L 116.014 89.3602 L 116.043 89.3575 L 116.071 89.3547 L 116.099 89.3521 L 116.128 89.3494 L 116.156 89.3467 L 116.184 89.3441 L 116.212 89.3414 L 116.241 89.3387 L 116.268 89.3361 L 116.297 89.3334 L 116.325 89.3306 L 116.353 89.328 L 116.382 89.3253 L 116.41 89.3226 L 116.438 89.32 L 116.466 89.3173 L 116.495 89.3146 L 116.522 89.312 L 116.551 89.3093 L 116.579 89.3065 L 116.607 89.3039 L 116.636 89.3012 L 116.664 89.2984 L 116.692 89.2958 L 116.721 89.2931 L 116.749 89.2904 L 116.777 89.2878 L 116.806 89.2851 L 116.834 89.2823 L 116.862 89.2797 L 116.891 89.277 L 116.919 89.2743 L 116.947 89.2717 L 116.975 89.269 L 117.004 89.2663 L 117.031 89.2637 L 117.06 89.261 L 117.088 89.2582 L 117.116 89.2556 L 117.145 89.2529 L 117.173 89.2502 L 117.201 89.2476 L 117.229 89.2449 L 117.258 89.2422 L 117.285 89.2396 L 117.314 89.2369 L 117.342 89.2341 L 117.37 89.2315 L 117.399 89.2288 L 117.427 89.2261 L 117.455 89.2235 L 117.483 89.2208 L 117.512 89.2181 L 117.539 89.2155 L 117.568 89.2128 L 117.596 89.21 L 117.624 89.2074 L 117.653 89.2047 L 117.681 89.2019 L 117.709 89.1993 L 117.738 89.1966 L 117.766 89.1939 L 117.794 89.1913 L 117.823 89.1886 L 117.851 89.1858 L 117.879 89.1832 L 117.908 89.1805 L 117.936 89.1778 L 117.964 89.1752 L 117.992 89.1725 L 118.021 89.1698 L 118.048 89.1672 L 118.077 89.1645 L 118.105 89.1617 L 118.133 89.1591 L 118.162 89.1564 L 118.19 89.1537 L 118.218 89.1511 L 118.246 89.1484 L 118.275 89.1457 L 118.302 89.1431 L 118.331 89.1404 L 118.359 89.1376 L 118.387 89.135 L 118.416 89.1323 L 118.444 89.1295 L 118.472 89.1269 L 118.5 89.1242 L 118.529 89.1215 L 118.556 89.1189 L 118.585 89.1162 L 118.613 89.1134 L 118.641 89.1108 L 118.67 89.1081 L 118.698 89.1053 L 118.726 89.1027 L 118.755 89.1 L 118.783 89.0973 L 118.811 89.0947 L 118.84 89.092 L 118.868 89.0892 L 118.896 89.0866 L 118.925 89.0839 L 118.953 89.0812 L 118.981 89.0786 L 119.009 89.0759 L 119.038 89.0732 L 119.065 89.0706 L 119.094 89.0679 L 119.122 89.0651 L 119.15 89.0625 L 119.179 89.0598 L 119.207 89.0571 L 119.235 89.0545 L 119.263 89.0518 L 119.292 89.0491 L 119.319 89.0465 L 119.348 89.0438 L 119.376 89.041 L 119.404 89.0384 L 119.433 89.0357 L 119.461 89.0329 L 119.489 89.0303 L 119.518 89.0276 L 119.546 89.0249 L 119.574 89.0223 L 119.603 89.0196 L 119.631 89.0168 L 119.659 89.0142 L 119.688 89.0115 L 119.716 89.0087 L 119.744 89.0061 L 119.773 89.0034 L 119.801 89.0007 L 119.829 88.9981 L 119.858 88.9954 L 119.886 88.9926 L 119.914 88.99 L 119.943 88.9873 L 119.971 88.9846 L 119.999 88.982 L 120.027 88.9793 L 120.056 88.9766 L 120.083 88.974 L 120.112 88.9713 L 120.14 88.9685 L 120.168 88.9659 L 120.197 88.9632 L 120.225 88.9604 L 120.253 88.9578 L 120.282 88.9551 L 120.31 88.9524 L 120.338 88.9498 L 120.367 88.9471 L 120.395 88.9443 L 120.423 88.9417 L 120.452 88.939 L 120.48 88.9363 L 120.508 88.9337 L 120.536 88.931 L 120.565 88.9283 L 120.592 88.9257 L 120.621 88.923 L 120.649 88.9202 L 120.677 88.9176 L 120.706 88.9149 L 120.734 88.9121 L 120.762 88.9095 L 120.791 88.9068 L 120.819 88.9041 L 120.847 88.9015 L 120.876 88.8988 L 120.904 88.896 L 120.932 88.8934 L 120.961 88.8907 L 120.989 88.8879 L 121.017 88.8853 L 121.046 88.8826 L 121.074 88.8799 L 121.102 88.8773 L 121.131 88.8746 L 121.159 88.8718 L 121.187 88.8692 L 121.216 88.8665 L 121.244 88.8638 L 121.272 88.8612 L 121.3 88.8585 L 121.329 88.8558 L 121.356 88.8532 L 121.385 88.8505 L 121.413 88.8477 L 121.441 88.8451 L 121.47 88.8424 L 121.498 88.8397 L 121.526 88.8371 L 121.554 88.8344 L 121.583 88.8317 L 121.61 88.8291 L 121.639 88.8264 L 121.667 88.8236 L 121.695 88.821 L 121.724 88.8183 L 121.752 88.8155 L 121.78 88.8129 L 121.809 88.8102 L 121.837 88.8075 L 121.865 88.8049 L 121.894 88.8022 L 121.922 88.7994 L 121.95 88.7968 L 121.979 88.7941 L 122.007 88.7914 L 122.035 88.7888 L 122.063 88.7861 L 122.092 88.7834 L 122.119 88.7808 L 122.148 88.7781 L 122.176 88.7753 L 122.204 88.7727 L 122.233 88.77 L 122.261 88.7673 L 122.289 88.7647 L 122.317 88.762 L 122.346 88.7593 L 122.373 88.7567 L 122.402 88.754 L 122.43 88.7512 L 122.458 88.7486 L 122.487 88.7459 L 122.515 88.7431 L 122.543 88.7405 L 122.572 88.7378 L 122.6 88.7351 L 122.628 88.7325 L 122.657 88.7298 L 122.685 88.727 L 122.713 88.7244 L 122.742 88.7217 L 122.77 88.7189 L 122.798 88.7163 L 122.827 88.7136 L 122.855 88.7109 L 122.883 88.7083 L 122.912 88.7056 L 122.94 88.7028 L 122.968 88.7002 L 122.997 88.6975 L 123.025 88.6948 L 123.053 88.6922 L 123.081 88.6895 L 123.11 88.6868 L 123.137 88.6842 L 123.166 88.6815 L 123.194 88.6787 L 123.222 88.6761 L 123.251 88.6734 L 123.279 88.6706 L 123.307 88.668 L 123.336 88.6653 L 123.364 88.6626 L 123.392 88.66 L 123.421 88.6573 L 123.449 88.6545 L 123.477 88.6519 L 123.506 88.6492 L 123.534 88.6465 L 123.562 88.6439 L 123.59 88.6412 L 123.619 88.6385 L 123.646 88.6359 L 123.675 88.6332 L 123.703 88.6304 L 123.731 88.6278 L 123.76 88.6251 L 123.788 88.6223 L 123.816 88.6197 L 123.845 88.617 L 123.873 88.6143 L 123.901 88.6117 L 123.93 88.609 L 123.958 88.6062 L 123.986 88.6036 L 124.015 88.6009 L 124.043 88.5981 L 124.071 88.5955 L 124.1 88.5928 L 124.128 88.5901 L 124.156 88.5875 L 124.185 88.5848 L 124.213 88.582 L 124.241 88.5794 L 124.27 88.5767 L 124.298 88.574 L 124.326 88.5714 L 124.354 88.5687 L 124.383 88.566 L 124.41 88.5634 L 124.439 88.5607 L 124.467 88.5579 L 124.495 88.5553 L 124.524 88.5526 L 124.552 88.5499 L 124.58 88.5473 L 124.608 88.5446 L 124.637 88.5419 L 124.664 88.5393 L 124.693 88.5366 L 124.721 88.5338 L 124.749 88.5312 L 124.778 88.5285 L 124.806 88.5257 L 124.834 88.5231 L 124.863 88.5204 L 124.891 88.5177 L 124.919 88.5151 L 124.948 88.5124 L 124.976 88.5096 L 125.004 88.507 L 125.033 88.5043 L 125.061 88.5016 L 125.089 88.499 L 125.117 88.4963 L 125.146 88.4936 L 125.173 88.491 L 125.202 88.4883 L 125.23 88.4855 L 125.258 88.4829 L 125.287 88.4802 L 125.315 88.4775 L 125.343 88.4749 L 125.371 88.4722 L 125.4 88.4695 L 125.427 88.4669 L 125.456 88.4642 L 125.484 88.4614 L 125.512 88.4588 L 125.541 88.4561 L 125.569 88.4533 L 125.597 88.4507 L 125.626 88.448 L 125.654 88.4453 L 125.682 88.4427 L 125.711 88.44 L 125.739 88.4372 L 125.767 88.4346 L 125.796 88.4319 L 125.824 88.4291 L 125.852 88.4265 L 125.881 88.4238 L 125.909 88.4211 L 125.937 88.4185 L 125.966 88.4158 L 125.994 88.413 L 126.022 88.4104 L 126.051 88.4077 L 126.079 88.405 L 126.107 88.4024 L 126.135 88.3997 L 126.164 88.397 L 126.191 88.3944 L 126.22 88.3917 L 126.248 88.3889 L 126.276 88.3863 L 126.305 88.3836 L 126.333 88.3809 L 126.361 88.3783 L 126.389 88.3756 L 126.418 88.3729 L 126.445 88.3703 L 126.474 88.3676 L 126.502 88.3648 L 126.53 88.3622 L 126.559 88.3595 L 126.587 88.3568 L 126.615 88.3542 L 126.643 88.3515 L 126.672 88.3488 L 126.699 88.3462 L 126.728 88.3435 L 126.756 88.3407 L 126.784 88.3381 L 126.813 88.3354 L 126.841 88.3326 L 126.869 88.33 L 126.898 88.3273 L 126.926 88.3246 L 126.954 88.322 L 126.983 88.3193 L 127.011 88.3165 L 127.039 88.3139 L 127.068 88.3112 L 127.096 88.3085 L 127.124 88.3059 L 127.152 88.3032 L 127.181 88.3005 L 127.208 88.2979 L 127.237 88.2952 L 127.265 88.2924 L 127.293 88.2898 L 127.322 88.2871 L 127.35 88.2844 L 127.378 88.2818 L 127.406 88.2791 L 127.435 88.2764 L 127.462 88.2738 L 127.491 88.2711 L 127.519 88.2683 L 127.547 88.2657 L 127.576 88.263 L 127.604 88.2603 L 127.632 88.2577 L 127.66 88.255 L 127.689 88.2523 L 127.716 88.2497 L 127.745 88.247 L 127.773 88.2442 L 127.801 88.2416 L 127.83 88.2389 L 127.858 88.2361 L 127.886 88.2335 L 127.915 88.2308 L 127.943 88.2281 L 127.971 88.2255 L 128 88.2228 L 128.028 88.22 L 128.056 88.2174 L 128.085 88.2147 L 128.113 88.212 L 128.141 88.2094 L 128.169 88.2067 L 128.198 88.204 L 128.225 88.2014 L 128.254 88.1987 L 128.282 88.1959 L 128.31 88.1933 L 128.339 88.1906 L 128.367 88.1879 L 128.395 88.1853 L 128.423 88.1826 L 128.452 88.1799 L 128.479 88.1773 L 128.508 88.1746 L 128.536 88.1718 L 128.564 88.1692 L 128.593 88.1665 L 128.621 88.1638 L 128.649 88.1612 L 128.677 88.1585 L 128.706 88.1558 L 128.733 88.1532 L 128.762 88.1505 L 128.79 88.1477 L 128.818 88.1451 L 128.847 88.1424 L 128.875 88.1396 L 128.903 88.137 L 128.932 88.1343 L 128.96 88.1316 L 128.988 88.129 L 129.017 88.1263 L 129.045 88.1235 L 129.073 88.1209 L 129.102 88.1182 L 129.13 88.1155 L 129.158 88.1129 L 129.186 88.1102 L 129.215 88.1075 L 129.242 88.1049 L 129.271 88.1022 L 129.299 88.0994 L 129.327 88.0968 L 129.356 88.0941 L 129.384 88.0914 L 129.412 88.0888 L 129.441 88.0861 L 129.469 88.0834 L 129.497 88.0808 L 129.526 88.0781 L 129.554 88.0753 L 129.582 88.0727 L 129.611 88.07 L 129.639 88.0672 L 129.667 88.0646 L 129.695 88.0619 L 129.724 88.0592 L 129.751 88.0566 L 129.78 88.0539 L 129.808 88.0511 L 129.836 88.0485 L 129.865 88.0458 L 129.893 88.043 L 129.921 88.0404 L 129.95 88.0377 L 129.978 88.035 L 130.006 88.0324 L 130.035 88.0297 L 130.063 88.0269 L 130.091 88.0243 L 130.12 88.0216 L 130.148 88.0189 L 130.176 88.0163 L 130.205 88.0136 L 130.233 88.0109 L 130.261 88.0083 L 130.29 88.0056 L 130.318 88.0028 L 130.346 88.0002 L 130.375 87.9975 L 130.403 87.9947 L 130.431 87.9921 L 130.46 87.9894 L 130.488 87.9867 L 130.516 87.9841 L 130.545 87.9814 L 130.573 87.9786 L 130.601 87.976 L 130.63 87.9733 L 130.658 87.9706 L 130.686 87.968 L 130.714 87.9653 L 130.743 87.9626 L 130.77 87.96 L 130.799 87.9573 L 130.827 87.9545 L 130.855 87.9519 L 130.884 87.9492 L 130.912 87.9464 L 130.94 87.9438 L 130.969 87.9411 L 130.997 87.9384 L 131.025 87.9358 L 131.054 87.9331 L 131.082 87.9303 L 131.11 87.9277 L 131.139 87.925 L 131.167 87.9222 L 131.195 87.9196 L 131.224 87.9169 L 131.252 87.9142 L 131.28 87.9116 L 131.309 87.9089 L 131.337 87.9061 L 131.365 87.9035 L 131.394 87.9008 L 131.422 87.8981 L 131.45 87.8955 L 131.478 87.8928 L 131.507 87.8901 L 131.534 87.8875 L 131.563 87.8848 L 131.591 87.882 L 131.619 87.8794 L 131.648 87.8767 L 131.676 87.874 L 131.704 87.8714 L 131.732 87.8687 L 131.761 87.866 L 131.788 87.8634 L 131.817 87.8607 L 131.845 87.8579 L 131.873 87.8553 L 131.902 87.8526 L 131.93 87.8498 L 131.958 87.8472 L 131.987 87.8445 L 132.015 87.8418 L 132.043 87.8392 L 132.072 87.8365 L 132.1 87.8337 L 132.128 87.8311 L 132.157 87.8284 L 132.185 87.8257 L 132.213 87.8231 L 132.241 87.8204 L 132.27 87.8177 L 132.297 87.8151 L 132.326 87.8124 L 132.354 87.8096 L 132.382 87.807 L 132.411 87.8043 L 132.439 87.8016 L 132.467 87.799 L 132.495 87.7963 L 132.524 87.7936 L 132.551 87.791 L 132.58 87.7883 L 132.608 87.7855 L 132.636 87.7829 L 132.665 87.7802 L 132.693 87.7774 L 132.721 87.7748 L 132.75 87.7721 L 132.778 87.7694 L 132.806 87.7668 L 132.835 87.7641 L 132.863 87.7613 L 132.891 87.7587 L 132.92 87.756 L 132.948 87.7532 L 132.976 87.7506 L 133.005 87.7479 L 133.033 87.7452 L 133.061 87.7426 L 133.09 87.7399 L 133.118 87.7371 L 133.146 87.7345 L 133.175 87.7318 L 133.203 87.7291 L 133.231 87.7265 L 133.259 87.7238 L 133.288 87.7211 L 133.315 87.7185 L 133.344 87.7158 L 133.372 87.713 L 133.4 87.7104 L 133.429 87.7077 L 133.457 87.7049 L 133.485 87.7023 L 133.514 87.6996 L 133.542 87.6969 L 133.57 87.6943 L 133.599 87.6916 L 133.627 87.6888 L 133.655 87.6862 L 133.684 87.6835 L 133.712 87.6808 L 133.74 87.6782 L 133.768 87.6755 L 133.797 87.6728 L 133.824 87.6702 L 133.853 87.6675 L 133.881 87.6647 L 133.909 87.6621 L 133.938 87.6594 L 133.966 87.6566 L 133.994 87.654 L 134.023 87.6513 L 134.051 87.6486 L 134.079 87.646 L 134.108 87.6433 L 134.136 87.6405 L 134.164 87.6379 L 134.193 87.6352 L 134.221 87.6324 L 134.249 87.6298 L 134.278 87.6271 L 134.306 87.6244 L 134.334 87.6218 L 134.363 87.6191 L 134.391 87.6163 L 134.419 87.6137 L 134.448 87.611 L 134.476 87.6083 L 134.504 87.6057 L 134.532 87.603 L 134.561 87.6003 L 134.588 87.5977 L 134.617 87.595 L 134.645 87.5922 L 134.673 87.5896 L 134.702 87.5869 L 134.73 87.5842 L 134.758 87.5816 L 134.786 87.5789 L 134.815 87.5762 L 134.842 87.5736 L 134.871 87.5709 L 134.899 87.5681 L 134.927 87.5655 L 134.956 87.5628 L 134.984 87.56 L 135.012 87.5574 L 135.041 87.5547 L 135.069 87.552 L 135.097 87.5494 L 135.126 87.5467 L 135.154 87.5439 L 135.182 87.5413 L 135.211 87.5386 L 135.239 87.5359 L 135.267 87.5333 L 135.295 87.5306 L 135.324 87.5279 L 135.351 87.5253 L 135.38 87.5226 L 135.408 87.5198 L 135.436 87.5172 L 135.465 87.5145 L 135.493 87.5118 L 135.521 87.5092 L 135.549 87.5065 L 135.578 87.5038 L 135.605 87.5012 L 135.634 87.4985 L 135.662 87.4957 L 135.69 87.4931 L 135.719 87.4904 L 135.747 87.4876 L 135.775 87.485 L 135.804 87.4823 L 135.832 87.4796 L 135.86 87.477 L 135.889 87.4743 L 135.917 87.4715 L 135.945 87.4689 L 135.974 87.4662 L 136.002 87.4634 L 136.03 87.4608 L 136.059 87.4581 L 136.087 87.4554 L 136.115 87.4528 L 136.144 87.4501 L 136.172 87.4473 L 136.2 87.4447 L 136.229 87.442 L 136.257 87.4393 L 136.285 87.4367 L 136.313 87.434 L 136.342 87.4313 L 136.369 87.4287 L 136.398 87.426 L 136.426 87.4232 L 136.454 87.4206 L 136.483 87.4179 L 136.511 87.4152 L 136.539 87.4126 L 136.567 87.4099 L 136.596 87.4072 L 136.623 87.4046 L 136.652 87.4019 L 136.68 87.3991 L 136.708 87.3965 L 136.737 87.3938 L 136.765 87.3911 L 136.793 87.3885 L 136.821 87.3858 L 136.85 87.3831 L 136.877 87.3805 L 136.906 87.3778 L 136.934 87.375 L 136.962 87.3724 L 136.991 87.3697 L 137.019 87.3669 L 137.047 87.3643 L 137.076 87.3616 L 137.104 87.3589 L 137.132 87.3563 L 137.161 87.3536 L 137.189 87.3508 L 137.217 87.3482 L 137.246 87.3455 L 137.274 87.3428 L 137.302 87.3402 L 137.33 87.3375 L 137.359 87.3348 L 137.386 87.3322 L 137.415 87.3295 L 137.443 87.3267 L 137.471 87.3241 L 137.5 87.3214 L 137.528 87.3187 L 137.556 87.3161 L 137.584 87.3134 L 137.613 87.3107 L 137.64 87.3081 L 137.669 87.3054 L 137.697 87.3026 L 137.725 87.3 L 137.754 87.2973 L 137.782 87.2946 L 137.81 87.292 L 137.838 87.2893 L 137.867 87.2866 L 137.894 87.284 L 137.923 87.2813 L 137.951 87.2785 L 137.979 87.2759 L 138.008 87.2732 L 138.036 87.2704 L 138.064 87.2678 L 138.093 87.2651 L 138.121 87.2624 L 138.149 87.2598 L 138.178 87.2571 L 138.206 87.2543 L 138.234 87.2517 L 138.263 87.249 L 138.291 87.2463 L 138.319 87.2437 L 138.347 87.241 L 138.376 87.2383 L 138.403 87.2357 L 138.432 87.233 L 138.46 87.2302 L 138.488 87.2276 L 138.517 87.2249 L 138.545 87.2222 L 138.573 87.2196 L 138.601 87.2169 L 138.63 87.2142 L 138.657 87.2116 L 138.686 87.2089 L 138.714 87.2061 L 138.742 87.2035 L 138.771 87.2008 L 138.799 87.198 L 138.827 87.1954 L 138.855 87.1927 L 138.884 87.19 L 138.911 87.1874 L 138.94 87.1847 L 138.968 87.1819 L 138.996 87.1793 L 139.025 87.1766 L 139.053 87.1738 L 139.081 87.1712 L 139.11 87.1685 L 139.138 87.1658 L 139.166 87.1632 L 139.195 87.1605 L 139.223 87.1577 L 139.251 87.1551 L 139.28 87.1524 L 139.308 87.1497 L 139.336 87.1471 L 139.364 87.1444 L 139.393 87.1417 L 139.42 87.1391 L 139.449 87.1364 L 139.477 87.1336 L 139.505 87.131 L 139.534 87.1283 L 139.562 87.1256 L 139.59 87.123 L 139.619 87.1203 L 139.647 87.1176 L 139.675 87.115 L 139.704 87.1123 L 139.732 87.1095 L 139.76 87.1069 L 139.789 87.1042 L 139.817 87.1014 L 139.845 87.0988 L 139.873 87.0961 L 139.902 87.0934 L 139.929 87.0908 L 139.958 87.0881 L 139.986 87.0853 L 140.014 87.0827 L 140.043 87.08 L 140.071 87.0772 L 140.099 87.0746 L 140.128 87.0719 L 140.156 87.0692 L 140.184 87.0666 L 140.213 87.0639 L 140.241 87.0611 L 140.269 87.0585 L 140.298 87.0558 L 140.326 87.0531 L 140.354 87.0505 L 140.383 87.0478 L 140.411 87.0451 L 140.439 87.0425 L 140.468 87.0398 L 140.496 87.037 L 140.524 87.0344 L 140.553 87.0317 L 140.581 87.0289 L 140.609 87.0263 L 140.638 87.0236 L 140.666 87.0209 L 140.694 87.0183 L 140.723 87.0156 L 140.751 87.0128 L 140.779 87.0102 L 140.808 87.0075 L 140.836 87.0048 L 140.864 87.0022 L 140.892 86.9995 L 140.921 86.9968 L 140.948 86.9942 L 140.977 86.9915 L 141.005 86.9887 L 141.033 86.9861 L 141.062 86.9834 L 141.09 86.9806 L 141.118 86.978 L 141.147 86.9753 L 141.175 86.9726 L 141.203 86.97 L 141.232 86.9673 L 141.26 86.9645 L 141.288 86.9619 L 141.317 86.9592 L 141.345 86.9564 L 141.373 86.9538 L 141.402 86.9511 L 141.43 86.9484 L 141.458 86.9458 L 141.487 86.9431 L 141.515 86.9403 L 141.543 86.9377 L 141.572 86.935 L 141.6 86.9323 L 141.628 86.9297 L 141.656 86.927 L 141.685 86.9243 L 141.712 86.9217 L 141.741 86.919 L 141.769 86.9162 L 141.797 86.9136 L 141.826 86.9109 L 141.854 86.9081 L 141.882 86.9055 L 141.91 86.9028 L 141.939 86.9001 L 141.966 86.8975 L 141.995 86.8948 L 142.023 86.892 L 142.051 86.8894 L 142.08 86.8867 L 142.108 86.8839 L 142.136 86.8813 L 142.165 86.8786 L 142.193 86.8759 L 142.221 86.8733 L 142.25 86.8706 L 142.278 86.8678 L 142.306 86.8652 L 142.335 86.8625 L 142.363 86.8598 L 142.391 86.8572 L 142.419 86.8545 L 142.448 86.8518 L 142.475 86.8492 L 142.504 86.8465 L 142.532 86.8437 L 142.56 86.8411 L 142.589 86.8384 L 142.617 86.8357 L 142.645 86.8331 L 142.673 86.8304 L 142.702 86.8277 L 142.729 86.8251 L 142.758 86.8224 L 142.786 86.8196 L 142.814 86.817 L 142.843 86.8143 L 142.871 86.8115 L 142.899 86.8089 L 142.928 86.8062 L 142.956 86.8035 L 142.984 86.8009 L 143.013 86.7982 L 143.041 86.7954 L 143.069 86.7928 L 143.098 86.7901 L 143.126 86.7873 L 143.154 86.7847 L 143.183 86.782 L 143.211 86.7793 L 143.239 86.7767 L 143.268 86.774 L 143.296 86.7712 L 143.324 86.7686 L 143.353 86.7659 L 143.381 86.7632 L 143.409 86.7606 L 143.437 86.7579 L 143.466 86.7552 L 143.493 86.7526 L 143.522 86.7499 L 143.55 86.7471 L 143.578 86.7445 L 143.607 86.7418 L 143.635 86.7391 L 143.663 86.7365 L 143.692 86.7338 L 143.72 86.7311 L 143.748 86.7285 L 143.777 86.7258 L 143.805 86.723 L 143.833 86.7204 L 143.862 86.7177 L 143.89 86.7149 L 143.918 86.7123 L 143.946 86.7096 L 143.975 86.7069 L 144.002 86.7043 L 144.031 86.7016 L 144.059 86.6988 L 144.087 86.6962 L 144.116 86.6935 L 144.144 86.6907 L 144.172 86.6881 L 144.201 86.6854 L 144.229 86.6827 L 144.257 86.6801 L 144.286 86.6774 L 144.314 86.6746 L 144.342 86.672 L 144.371 86.6693 L 144.399 86.6666 L 144.427 86.664 L 144.456 86.6613 L 144.484 86.6586 L 144.512 86.656 L 144.541 86.6533 L 144.569 86.6505 L 144.597 86.6479 L 144.626 86.6452 L 144.654 86.6425 L 144.682 86.6399 L 144.71 86.6372 L 144.739 86.6345 L 144.766 86.6319 L 144.795 86.6292 L 144.823 86.6264 L 144.851 86.6238 L 144.88 86.6211 L 144.908 86.6183 L 144.936 86.6157 L 144.964 86.613 L 144.993 86.6103 L 145.02 86.6077 L 145.049 86.605 L 145.077 86.6022 L 145.105 86.5996 L 145.134 86.5969 L 145.162 86.5941 L 145.19 86.5915 L 145.219 86.5888 L 145.247 86.5861 L 145.275 86.5835 L 145.304 86.5808 L 145.332 86.578 L 145.36 86.5754 L 145.389 86.5727 L 145.417 86.57 L 145.445 86.5674 L 145.473 86.5647 L 145.502 86.562 L 145.529 86.5594 L 145.558 86.5567 L 145.586 86.5539 L 145.614 86.5513"
       id="path6" /></g></svg>
