<?xml version="1.0" encoding="UTF-8" standalone="no"?>
<!-- Created with Inkscape (http://www.inkscape.org/) -->

<svg
   version="1.1"
   id="svg1"
   width="245.05078"
   height="355.79102"
   viewBox="0 0 245.05078 355.79102"
   sodipodi:docname="Icon Decision.svg"
   xml:space="preserve"
   inkscape:version="1.3.2 (091e20e, 2023-11-25)"
   xmlns:inkscape="http://www.inkscape.org/namespaces/inkscape"
   xmlns:sodipodi="http://sodipodi.sourceforge.net/DTD/sodipodi-0.dtd"
   xmlns="http://www.w3.org/2000/svg"
   xmlns:svg="http://www.w3.org/2000/svg"><defs
     id="defs1"><filter
       inkscape:label="Fast Crop"
       inkscape:auto-region="false"
       inkscape:menu="Fill and Transparency"
       inkscape:menu-tooltip="Does not filter but adds a filter region"
       style="color-interpolation-filters:sRGB"
       id="filter1"><feColorMatrix
         type="saturate"
         values="1"
         id="feColorMatrix1" /></filter></defs><sodipodi:namedview
     id="namedview1"
     pagecolor="#747474"
     bordercolor="#000000"
     borderopacity="0.25"
     inkscape:showpageshadow="2"
     inkscape:pageopacity="0.0"
     inkscape:pagecheckerboard="0"
     inkscape:deskcolor="#d1d1d1"
     showgrid="false"
     inkscape:zoom="0.23839278"
     inkscape:cx="-423.67056"
     inkscape:cy="463.52076"
     inkscape:window-width="1440"
     inkscape:window-height="872"
     inkscape:window-x="0"
     inkscape:window-y="28"
     inkscape:window-maximized="0"
     inkscape:current-layer="g1"
     inkscape:clip-to-page="true" /><g
     inkscape:groupmode="layer"
     inkscape:label="Image"
     id="g1"
     transform="translate(-396.32617,-345.10352)"><path
       id="path25"
       style="fill:#ffffff"
       d="M 518.6543,345.10352 396.32617,413.41016 V 632.96094 L 518.6543,700.89453 641.37695,634.6543 V 413.20508 Z m 0.0195,17.60351 110.57812,61.36328 V 623.60547 L 518.67383,683.29102 408.45117,622.08008 V 424.25391 Z" /><path
       id="path46-1"
       style="fill:#ffffff;stroke-width:0.689829"
       d="m 446.33752,517.04316 v -6.60612 -6.60614 c -2.21967,1.13997 -5.89414,3.30675 -11.03726,6.51347 9.22528,5.61786 9.24227,5.79863 11.03726,6.69879 z m 147.29416,-27.65844 v -6.60613 -6.60613 c 2.21967,1.13996 5.89414,3.30675 11.03726,6.51346 -9.22528,5.61787 -9.24226,5.79863 -11.03726,6.6988 z m -31.79479,-28.1914 c -15.76616,0 -32.02375,0.004 -47.30447,0.1765 -0.007,9.37071 -0.0142,-0.0895 -0.22905,28.05933 l -40.24451,0.27754 -40.01007,0.2304 c -18.34512,20.20549 -0.27885,0.0518 -18.62538,20.54935 17.14928,17.90049 0.3072,0.53907 19.19395,20.15055 h 39.56142 40.12459 c -0.0379,13.41324 0.009,26.82585 -0.0188,40.23912 0.009,23.83838 0.10392,48.49808 -0.0215,71.22752 l 6.75728,0.006 c 0,-49.86517 1.33195,-133.95104 1.32712,-139.29559 l 41.92057,-0.23038 41.92058,-0.22904 c 5.75288,-6.51294 11.61015,-13.06005 17.10291,-19.86897 -6.26377,-7.26364 -13.71855,-14.64162 -20.20444,-21.29172 z m 0.85959,7.81851 h 39.54794 l 2.15033,2.184 c 1.18245,1.20146 3.84811,4.02546 5.92418,6.27583 l 3.77519,4.09182 0.66558,0.80973 -0.66558,0.78281 -5.87971,6.1101 -5.87837,6.11145 -5.04302,0.0701 c -2.77389,0.0384 -20.77153,-0.20884 -39.99526,-0.19132 l -35.0398,0.0324 -0.0337,-12.65405 c -0.0421,-4.24021 0.0901,-9.82356 0.0391,-13.57831 z M 436.03879,496.8987 h 38.81499 l 39.68537,0.0444 c -0.0501,3.75475 0.0803,9.33809 0.0391,13.57831 l -0.0337,12.65405 -34.39173,-0.031 c -18.8678,-0.0175 -36.53171,0.22975 -39.25423,0.19132 l -4.95006,-0.0701 -5.76923,-6.11145 -5.77058,-6.11146 -0.65345,-0.78144 0.65345,-0.80974 3.70513,-4.09182 c 2.03763,-2.25038 4.65448,-5.07438 5.81504,-6.27583 z"
       sodipodi:nodetypes="cccccccccccccccccccccccccccccccccccccccccccccccccccccccccc" /><path
       style="fill:#ffffff;fill-opacity:1"
       d="m 585.07844,625.28943 1.4e-4,-18.22345 18.35201,-12.98947 c 10.0936,-7.14421 18.26854,-13.31163 18.16653,-13.70538 -0.33404,-1.28931 -8.14864,-14.97182 -8.55098,-14.97182 -0.21576,0 -2.37726,2.925 -4.80333,6.5 -2.42607,3.575 -8.63057,12.63084 -13.78777,20.12408 l -9.37673,13.62408 10e-4,-8.62408 0.001,-8.62407 13.32691,-16.665 c 7.3298,-9.16574 13.59133,-16.75313 13.91451,-16.86085 0.32317,-0.10773 3.92404,3.31792 8.00192,7.61254 4.07787,4.29462 7.52325,7.68201 7.65638,7.52752 0.13314,-0.15448 5.27115,-8.08088 11.41781,-17.61422 6.14666,-9.53333 11.4086,-17.5878 11.6932,-17.89882 0.2846,-0.31102 5.67736,0.23461 11.9839,1.21251 6.30655,0.9779 11.57021,1.67424 11.69703,1.54742 0.12682,-0.12682 4.43408,-8.88408 9.57169,-19.46058 5.1376,-10.5765 9.42947,-19.30027 9.53748,-19.38617 0.108,-0.0859 1.17137,-0.34176 2.36304,-0.5686 l 2.16667,-0.41242 v 3.59145 c 0,5.35812 -13.122,41.11316 -16.19965,44.14109 -1.17353,1.15457 -7.53369,6.65194 -14.13369,12.21638 l -12,10.11718 -0.489,-3.88305 c -0.26895,-2.13568 -0.67417,-7.12783 -0.90048,-11.09368 -0.22632,-3.96585 -0.57453,-7.04758 -0.77382,-6.84829 -0.78158,0.78158 -40.69979,62.07 -40.53757,62.23935 0.0951,0.0992 7.34165,-3.30652 16.10352,-7.56834 8.76188,-4.26182 17.22156,-8.31416 18.79929,-9.00519 l 2.8686,-1.25642 -2.20194,3.06614 c -6.33608,8.82284 -12.17765,13.74193 -37.86859,31.88849 -10.81667,7.64026 -21.09167,14.92272 -22.83334,16.18325 l -3.16666,2.29186 z m 111.70473,-6.16894 c 0.71117,-0.52002 1.43482,-0.80371 1.60811,-0.63042 0.36691,0.36691 -1.35223,1.55071 -2.27373,1.5657 -0.34508,0.006 -0.0456,-0.41526 0.66562,-0.93528 z"
       id="path108"
       transform="translate(-66.502074,46.551455)" /><path
       style="fill:#ffffff;stroke-width:0.323353"
       d="m 517.88177,448.13945 c -1.34848,-0.73287 -1.64989,-1.94519 -1.52818,-6.14653 0.10629,-3.67388 0.13318,-3.79378 1.01655,-4.55294 0.57262,-0.49211 1.31138,-0.77967 2.00291,-0.77967 0.69156,0 1.43031,0.28756 2.00294,0.77967 0.88334,0.75916 0.91014,0.87906 1.01655,4.55294 0.12327,4.25352 -0.18144,5.43128 -1.59389,6.16168 -1.12255,0.58049 -1.82767,0.57683 -2.91688,-0.0151 z m -23.08356,-9.52136 c -1.5171,-0.62095 -2.31374,-2.32036 -1.76931,-3.77435 0.40648,-1.08558 4.27647,-5.13226 5.55266,-5.80616 1.36089,-0.71866 2.46641,-0.56648 3.51699,0.4841 1.05057,1.05056 1.20273,2.15606 0.4841,3.51696 -0.66745,1.26391 -4.71607,5.1445 -5.78452,5.54442 -1.04496,0.39114 -1.12638,0.39255 -1.99992,0.0351 z m 47.04789,-0.0466 c -1.00475,-0.40412 -5.05857,-4.35114 -5.68262,-5.53293 -0.71864,-1.3609 -0.56648,-2.4664 0.4841,-3.51697 1.0041,-1.00411 2.14708,-1.20332 3.3605,-0.58571 1.2741,0.6485 5.38426,4.93387 5.72639,5.97049 0.76972,2.33233 -1.6145,4.57969 -3.88837,3.66512 z m -25.23751,-8.39804 c -5.28116,-0.77754 -10.22773,-4.16464 -12.95749,-8.87249 -3.13285,-5.40302 -3.13285,-12.70476 0,-18.10778 3.805,-6.56229 11.22354,-10.05417 18.64076,-8.77419 10.0729,1.73828 16.624,10.93643 14.88476,20.8991 -1.32609,7.59606 -7.08358,13.37962 -14.66516,14.73156 -2.76818,0.49362 -3.31351,0.50504 -5.90287,0.12378 z m 7.8012,-6.98707 c 9.92115,-4.66441 9.14727,-18.81202 -1.22933,-22.47393 -2.64834,-0.93462 -6.3224,-0.72211 -8.91556,0.51566 -2.37589,1.13407 -4.75381,3.50192 -5.93594,5.9108 -0.82795,1.68711 -0.91895,2.19808 -0.90992,5.10815 0.008,2.86635 0.11236,3.44422 0.91087,5.08893 2.93466,6.04447 10.11243,8.65597 16.07988,5.85039 z m -39.64336,-8.30524 c -0.94614,-0.42543 -1.7706,-1.66653 -1.7706,-2.66538 0,-0.26723 0.21911,-0.90959 0.48692,-1.42747 0.68403,-1.32279 2.22877,-1.69857 6.42752,-1.56361 3.36093,0.10796 3.51889,0.14573 4.26983,1.01943 1.03088,1.19938 1.03095,2.80634 1.4e-4,4.00584 -0.76361,0.88861 -0.85832,0.90894 -4.60777,0.98908 -2.68741,0.0574 -4.11954,-0.0492 -4.80604,-0.35789 z m 60.75199,0.11711 c -1.77833,-0.71765 -2.27801,-3.21187 -0.95239,-4.75413 0.75092,-0.87371 0.9089,-0.91143 4.26982,-1.01944 4.19874,-0.13496 5.74349,0.24083 6.42752,1.56361 0.2678,0.51787 0.48692,1.17431 0.48692,1.45873 0,1.03264 -0.96896,2.3615 -1.97856,2.71345 -1.20071,0.41858 -7.24119,0.44622 -8.25331,0.0378 z m -46.83997,-19.45366 c -1.28277,-0.70106 -5.33964,-4.96561 -5.66679,-5.95687 -0.76025,-2.30362 1.51256,-4.52817 3.7648,-3.68485 1.08559,0.40647 5.13227,4.27648 5.80619,5.55265 0.71863,1.3609 0.56647,2.46641 -0.4841,3.51699 -1.0022,1.00219 -2.2509,1.21107 -3.4201,0.57208 z m 37.96913,-0.57208 c -1.71918,-1.71919 -1.2211,-3.21448 2.18356,-6.55542 2.99413,-2.93808 4.37687,-3.37723 6.04308,-1.91922 1.81388,1.58719 1.32113,3.32332 -1.81713,6.40235 -3.45524,3.39001 -4.69195,3.78986 -6.40951,2.07229 z m -19.27744,-7.91832 c -0.88337,-0.75915 -0.91014,-0.87907 -1.01655,-4.55294 -0.12327,-4.25353 0.18144,-5.43127 1.59387,-6.16167 1.14213,-0.59061 1.70906,-0.59061 2.85119,0 1.41245,0.7304 1.71711,1.90814 1.59389,6.16167 -0.10629,3.67387 -0.13321,3.79379 -1.01655,4.55294 -1.19944,1.03076 -2.80643,1.03076 -4.00585,0 z"
       id="path57" /><path
       id="path118"
       style="fill:#ffffff;fill-opacity:1"
       d="m 784.35969,384.29902 c -0.28946,0.27518 -0.47425,2.61985 -0.47425,6.21641 0,4.25209 0.24543,6.68624 0.64775,6.43759 0.35592,-0.21996 0.85664,0.43778 1.11274,1.46111 0.25611,1.02333 2.0321,7.41222 3.94665,14.19554 l 3.47934,12.3323 -2.08437,2.19501 c -2.05828,2.16651 -2.29336,2.22418 2.32265,4.75196 l -0.0393,-2.89206 11.0048,8.85378 -10.39406,37.19795 -0.46037,-34.73819 c -0.79254,0.57591 -0.77328,0.57449 -1.64713,1.20642 l -7.55554,5.4624 -0.18044,16.98371 -0.17814,16.98036 3.78703,8.42819 3.78702,8.43153 25.22522,10.80752 c 13.87414,5.94446 25.22522,10.97635 25.22522,11.17949 0,0.20313 -13.05069,0.16265 -29.00068,-0.0871 l -28.99836,-0.45241 v 3.7198 c 0,2.20696 0.26089,3.55581 0.64081,3.321 0.35211,-0.21761 12.48492,5.17539 26.96258,11.98377 l 26.32176,12.37921 18.20408,4.24258 c 10.01188,2.33411 18.61053,4.27615 19.10861,4.31295 0.60849,0.045 0.78957,-0.42641 0.5529,-1.4343 -1.12138,-4.77572 -7.17076,-38.67541 -6.94248,-38.90369 0.15084,-0.15084 12.54605,8.51953 27.54555,19.26586 14.9995,10.74632 27.64706,19.76476 28.10539,20.04332 0.66148,0.40203 0.83282,-5.26047 0.83282,-27.4561 V 502.76276 L 913.43073,487.59538 901.644,472.428 l -2.04735,2.26539 c -1.12532,1.24659 -4.03571,4.48421 -6.46824,7.19495 l -4.42321,4.92957 -6.26003,-9.60444 c -3.44368,-5.28233 -11.0538,-17.01012 -16.91089,-26.06203 l -10.64854,-16.45758 -6.01714,5.96173 -6.01481,5.95837 -11.01869,-10.59639 -11.02099,-10.59974 -1.57079,2.28885 c -0.86331,1.25992 -1.78396,2.05318 -2.04736,1.76271 -0.26339,-0.29047 -7.59453,-10.42655 -16.2909,-22.52654 -8.69636,-12.09999 -16.08345,-22.28544 -16.41582,-22.63378 -0.0454,-0.0476 -0.0882,-0.0494 -0.12955,-0.0101 z m 37.19239,53.97724 9.66304,11.24316 9.66303,11.24652 7.1692,-7.44964 c 4.6435,-4.82346 7.17377,-7.02237 7.18077,-6.24323 0.006,0.66168 -0.64929,7.54311 -1.45513,15.29138 l -1.46437,14.0883 1.38109,3.24393 c 0.75979,1.78507 3.35169,7.37107 5.76035,12.41272 2.40866,5.04167 4.16718,9.15904 3.90731,9.15204 -0.25985,-0.007 -7.67135,-5.54734 -16.47134,-12.31219 -8.79999,-6.76485 -16.17087,-12.30749 -16.37881,-12.31889 -0.20794,-0.0114 -4.39685,3.4146 -9.30909,7.61385 -4.91224,4.19926 -9.01275,7.5527 -9.11245,7.453 -0.0997,-0.0997 1.51127,-6.00865 3.58113,-13.13322 3.62252,-12.46894 3.80249,-13.46652 4.82342,-26.62167 z m 78.16718,49.06108 c 0.67022,0.0147 1.6009,2.50534 4.9067,11.65536 2.50682,6.93853 4.56358,12.693 4.57358,12.7847 0.0702,0.65953 -1.98474,-0.60131 -8.98059,-5.49927 -4.39999,-3.08053 -7.90698,-5.96743 -7.79381,-6.41748 0.19318,-0.76821 4.39912,-8.29387 6.63249,-11.86648 0.24417,-0.39058 0.43822,-0.66172 0.66163,-0.65683 z"
       transform="matrix(0.84426917,0,0,0.58281941,-261.97828,322.89612)" /><path
       style="fill:#ffffff;fill-opacity:1"
       d="m 491.95386,631.54938 16.36637,47.17366 10.59001,11.55273 0.96272,-36.58365 -4.81363,-20.21729 z"
       id="path137" /></g></svg>
