<?xml version="1.0" encoding="UTF-8" standalone="no"?>
<!-- Created with Inkscape (http://www.inkscape.org/) -->

<svg
   version="1.1"
   id="svg1"
   width="1024"
   height="1024"
   viewBox="0 0 1024 1024"
   sodipodi:docname="Icon Black.svg"
   xml:space="preserve"
   inkscape:version="1.3.2 (091e20e, 2023-11-25)"
   xmlns:inkscape="http://www.inkscape.org/namespaces/inkscape"
   xmlns:sodipodi="http://sodipodi.sourceforge.net/DTD/sodipodi-0.dtd"
   xmlns="http://www.w3.org/2000/svg"
   xmlns:svg="http://www.w3.org/2000/svg"><defs
     id="defs1"><filter
       inkscape:label="Fast Crop"
       inkscape:auto-region="false"
       inkscape:menu="Fill and Transparency"
       inkscape:menu-tooltip="Does not filter but adds a filter region"
       style="color-interpolation-filters:sRGB;"
       id="filter1"><feColorMatrix
         type="saturate"
         values="1"
         id="feColorMatrix1" /></filter></defs><sodipodi:namedview
     id="namedview1"
     pagecolor="#ffffff"
     bordercolor="#000000"
     borderopacity="0.25"
     inkscape:showpageshadow="2"
     inkscape:pageopacity="0.0"
     inkscape:pagecheckerboard="0"
     inkscape:deskcolor="#d1d1d1"
     showgrid="false"
     inkscape:zoom="0.98790882"
     inkscape:cx="616.45365"
     inkscape:cy="515.73585"
     inkscape:window-width="1440"
     inkscape:window-height="872"
     inkscape:window-x="0"
     inkscape:window-y="28"
     inkscape:window-maximized="0"
     inkscape:current-layer="g1" /><g
     inkscape:groupmode="layer"
     inkscape:label="Image"
     id="g1"><path
       id="path25"
       style="fill:#000000"
       inkscape:label="path25"
       d="M 518.6543 345.10352 L 396.32617 413.41016 L 396.32617 632.96094 L 518.6543 700.89453 L 641.37695 634.6543 L 641.37695 413.20508 L 518.6543 345.10352 z M 519.01758 360.25586 L 628.125 421.13672 L 628.17578 517.06445 L 627.59961 518.79688 L 607.67383 493.0957 L 597.85352 504.06836 L 572.15234 464.50586 L 562.91602 473.63477 L 546.45117 457.28516 L 543.84766 460.92773 L 518.56055 425.86914 L 503.88281 445.91602 L 503.70703 418.06641 L 541.25391 418.01172 L 541.07227 384.57812 L 498.76172 384.68555 L 498.58008 449.43945 L 492.55664 449.62109 L 478.00977 479.70312 L 460.23047 477.04492 L 442.37305 504.54297 L 430.6543 492.4707 L 409.21484 519.27148 L 409.25977 420.59766 L 519.01758 360.25586 z M 503.51953 388.21094 L 537.52344 388.21094 L 537.52344 414.59766 L 503.51953 414.59766 L 503.51953 388.21094 z M 516.91211 391.00977 L 516.91211 397.97461 L 510.02539 397.97461 L 510.02539 404.97461 L 516.91211 404.97461 L 516.91211 412.00977 L 523.91211 412.00977 L 523.91211 404.97461 L 531.02539 404.97461 L 531.02539 397.97461 L 523.91211 397.97461 L 523.91211 391.00977 L 516.91211 391.00977 z M 519.00977 435.64258 L 525.06836 457.28906 L 521.68555 460.63867 L 530.25781 465.36719 L 503.42188 484.7207 L 511.17773 484.44141 L 523.92578 512.73242 L 562.33398 529.19336 L 516.99609 528.9043 L 491.29297 543.63086 L 519.30664 534.10156 L 559.1582 552.87305 L 588.33594 559.53711 L 582.54883 528.32617 L 627.85938 560.73828 L 627.73633 560.87695 L 628.08008 625.94531 L 519.19141 685.91797 L 409.67969 625.12891 L 409.29492 564.12109 L 409.04102 563.8418 L 409.2793 560.95898 L 444.85156 535.77344 L 454.04102 528.03711 L 460.97266 519.08594 L 431.32422 533.42773 L 462.41602 485.875 L 463.40234 503.19727 L 485.22852 484.7207 L 495.91406 455.55273 L 502.8457 460.17383 L 519.00977 435.64258 z M 546.95117 467.6582 L 561.53906 484.67578 L 572.50195 473.21484 L 570.01172 496.63477 L 578.98047 515.57031 L 553.56641 496.13672 L 539.61328 508.0957 L 545.59375 487.16602 L 546.95117 467.6582 z M 431.22656 500.89258 L 437.86914 512.73242 L 409.00195 533.23633 L 431.22656 500.89258 z M 606.38867 504.10938 L 613.36523 523.54492 L 600.4082 514.57422 L 606.38867 504.10938 z "
       inkscape:export-filename="path25.png"
       inkscape:export-xdpi="194.59462"
       inkscape:export-ydpi="194.59462" /></g></svg>
