<?xml version="1.0" encoding="UTF-8" standalone="no"?>
<!-- Created with Inkscape (http://www.inkscape.org/) -->

<svg
   version="1.1"
   id="svg1"
   width="1024"
   height="1024"
   viewBox="0 0 1024 1024"
   sodipodi:docname="Outline_Black.png"
   xmlns:inkscape="http://www.inkscape.org/namespaces/inkscape"
   xmlns:sodipodi="http://sodipodi.sourceforge.net/DTD/sodipodi-0.dtd"
   xmlns="http://www.w3.org/2000/svg"
   xmlns:svg="http://www.w3.org/2000/svg">
  <defs
     id="defs1" />
  <sodipodi:namedview
     id="namedview1"
     pagecolor="#ffffff"
     bordercolor="#000000"
     borderopacity="0.25"
     inkscape:showpageshadow="2"
     inkscape:pageopacity="0.0"
     inkscape:pagecheckerboard="0"
     inkscape:deskcolor="#d1d1d1" />
  <g
     inkscape:groupmode="layer"
     inkscape:label="Image"
     id="g1">
    <path
       style="fill:#000000"
       d="m 523.98293,853.30922 -3.53402,-1.26402 -5.46598,-3.03207 -5.46598,-3.03206 -6,-3.50324 -6,-3.50324 -12.08126,-7.07102 -12.08126,-7.07103 -7.91874,-4.42245 -7.91874,-4.42245 -41,-23.55165 -41,-23.55165 -19,-10.95372 -19,-10.95372 -45,-25.78196 -45,-25.78196 -9.08915,-5.33965 -9.08915,-5.33965 -4.24996,-4.61066 -4.24996,-4.61066 -2.16089,-4.67567 -2.16089,-4.67567 v -166 -166 l 2.70654,-5.5046 2.70653,-5.50461 3.79347,-3.68763 3.79346,-3.68763 9.5,-5.38992 9.5,-5.38992 41,-24.04187 41,-24.04187 63,-35.97508 63,-35.97507 29.5,-16.83618 29.5,-16.83618 4.76073,-1.81472 4.76073,-1.81472 4.23927,0.0439 4.23927,0.0439 3.56429,1.27442 3.56428,1.27443 20.93572,11.87535 20.93571,11.87535 45,25.62848 45,25.62848 20.5,11.81987 20.5,11.81988 26.5,15.53203 26.5,15.53204 18.88734,10.92622 18.88734,10.92622 5.11263,3.26449 5.1127,3.2645 6.3339,3.19198 6.3339,3.19199 4.2363,3.90484 4.2362,3.90484 2.9299,5.2884 2.9298,5.2884 v 167 167 l -2.8193,5.5 -2.8194,5.5 -3.1806,3.35062 -3.1807,3.35061 -5.5,3.75861 -5.5,3.75861 -45.00001,26.95731 -45,26.95731 -34.5,20.52702 -34.5,20.52703 -20,11.82893 -20,11.82893 -17,10.17717 -17,10.17716 -17,9.82012 -17,9.82012 -5.83909,1.83023 -5.83909,1.83022 -6.16091,-0.0439 -6.16091,-0.0439 z M 394.01695,726.57238 v -1.08865 l -4.49055,-5.13338 -4.49056,-5.13338 -3.51188,-7.1075 -3.51188,-7.1075 -1.04825,-5.67047 -1.04824,-5.67048 1.00691,-5.44685 1.0069,-5.44686 2.48846,-4.91074 2.48846,-4.91074 5.30532,-4.80167 5.30531,-4.80167 10,-4.77482 10,-4.77483 12.33094,-4.05691 12.33094,-4.05692 1.16906,-0.75899 1.16906,-0.759 -39.5,-0.5 -39.5,-0.5 -0.2777,-13.6702 -0.2777,-13.6702 10.66748,5.4202 10.66748,5.4202 h 4.03148 4.03148 l 1.82874,-1.65498 1.82874,-1.65499 v -2.12271 -2.12271 l -10.85999,-11.12132 -10.86,-11.12132 -2.1249,-2.98415 -2.12491,-2.98415 6.2349,3.36046 6.2349,3.36045 3.5275,0.0227 3.52749,0.0227 2.22251,-1.5567 2.2225,-1.5567 v -1.53516 -1.53515 l -12.9968,-13.578 -12.99681,-13.57801 0.31502,-0.31502 0.31502,-0.31502 3.89323,1.98488 3.89323,1.98488 h 2.56605 2.56605 l 2.22251,-1.5567 2.2225,-1.5567 v -2.0717 -2.0717 l -6.25,-6.63378 -6.25,-6.63377 -7.25428,-9.70493 -7.25428,-9.70493 -2.04517,-1.09454 -2.04517,-1.09455 -2.65367,0.31165 -2.65367,0.31165 -7.54688,9.9588 -7.54688,9.9588 -6.75,7.28132 -6.75,7.28131 v 1.8549 1.8549 l 1.97738,1.7895 1.97738,1.7895 3.62875,-0.58887 3.62876,-0.58886 4.04892,-2.11042 4.04892,-2.11041 -5.08117,5.81477 -5.08117,5.81476 -8.07388,7.97654 -8.07389,7.97654 v 2.21676 2.21676 l 2.22251,1.5567 2.22251,1.5567 h 2.5557 2.55571 l 7.28034,-3.48901 7.28035,-3.48901 -7.62909,8.99213 -7.62908,8.99214 -5.92947,5.21933 -5.92948,5.21934 v 1.9488 1.9488 l 1.65499,1.82874 1.65499,1.82874 h 4.32012 4.32012 l 10.55238,-5.38689 10.55237,-5.38689 -0.27748,13.63689 -0.27749,13.63689 -41,0.5 -41,0.5 -0.29933,5.73087 -0.29933,5.73086 5.35537,3.42579 5.35538,3.42579 23.94396,13.7129 23.94395,13.71289 29,16.24051 29,16.24051 7.5,4.55267 7.5,4.55267 1.75,0.0873 1.75,0.0873 z m 297.8551,-6.76111 9.6449,-5.84975 23.5,-14.27677 23.5,-14.27677 15.5,-9.22304 15.5,-9.22304 10,-5.93981 10,-5.93982 v -7.46062 -7.46063 l -41.25,-0.26109 -41.25,-0.26109 v -14.54793 -14.54792 l 1.25,0.7672 1.25,0.7672 4,2.6939 4,2.6939 5.87443,2.59792 5.87443,2.59791 h 4.04683 4.04683 l 1.82874,-1.65498 1.82874,-1.65499 v -1.98702 -1.98702 l -10.83267,-10.60799 -10.83268,-10.608 -3.28642,-4.29427 -3.28642,-4.29427 5.3691,3.20408 5.36909,3.20408 5.24849,0.4639 5.24848,0.46389 1.50152,-1.24615 1.50151,-1.24615 v -2.29592 -2.29592 l -12.12415,-12.12415 -12.12415,-12.12415 0.47537,-0.47537 0.47537,-0.47537 2.89878,1.51173 2.89878,1.51172 2.5275,0.006 2.52749,0.006 2.22251,-1.5567 2.2225,-1.5567 v -2.05946 -2.05946 l -6.03028,-6.80184 -6.03029,-6.80184 -5.89027,-7.832 -5.89026,-7.832 -2.15551,-2.75 -2.1555,-2.75 h -3.89505 -3.89504 l -6.92369,9.25 -6.92368,9.25 -7.14835,8 -7.14835,8 0.29314,3 0.29313,3 5.28933,0.30363 5.28933,0.30362 2.98164,-1.48744 2.98164,-1.48744 -1.91311,2.68382 -1.9131,2.68381 -10.10787,10.39182 -10.10786,10.39182 v 2.23573 2.23574 l 1.51777,1.25964 1.51776,1.25963 4.73224,-0.57695 4.73223,-0.57694 6,-3.25455 6,-3.25455 -6.13753,6.94431 -6.13754,6.9443 -7.67471,7.79329 -7.67471,7.79328 0.31225,2.67518 0.31224,2.67517 2.66721,1.49026 2.66721,1.49026 5.33279,-1.69419 5.33279,-1.6942 8.2763,-4.93883 8.2763,-4.93882 -0.2763,14.6743 -0.2763,14.6743 -42,0.59416 -42,0.59416 -11.5,1.6018 -11.5,1.6018 -23,3.54365 -23,3.54365 -5,1.09262 -5,1.09262 -9.11148,2.95409 -9.11149,2.95409 -4.63851,2.94166 -4.63852,2.94166 v 3.84771 3.84771 l 2.25,2.10696 2.25,2.10697 4.94053,2.11347 4.94052,2.11348 7.05948,1.88257 7.05947,1.88257 27.42599,5.13763 27.42599,5.13763 12.57401,3.35312 12.57401,3.35312 10,3.66252 10,3.66252 5,1.38849 5,1.38849 11,4.43641 11,4.4364 5.5,2.53553 5.5,2.53553 1.8551,0.0576 1.85509,0.0576 z M 535.01695,555.17864 v -1.48239 l -3.85904,-6.26761 -3.85905,-6.26762 -13.89095,-21.20996 -13.89096,-21.20997 -11.5,-17.63445 -11.5,-17.63446 -1.33777,-2.70783 -1.33778,-2.70783 4.03989,-6.44775 4.0399,-6.44775 10.02502,-16.5 10.02501,-16.5 12.74738,-21.23977 12.74737,-21.23978 1.17767,1.23978 1.17767,1.23977 22.2803,33 22.28029,33 3.4609,5.25 3.4609,5.25 h 1.23418 1.23418 l 1.01162,-1.25 1.01161,-1.25 10.2389,-24 10.23891,-24 4.91567,-11.40359 4.91568,-11.40358 -0.30586,-1.59642 -0.30586,-1.59641 -16.98789,-0.5 -16.98789,-0.5 -25.04151,-37.5 -25.04152,-37.5 h -1.8829 -1.8829 l -23.28745,35.5 -23.28745,35.5 -1.58482,2.25 -1.58482,2.25 h -12.9847 -12.9847 l -0.55878,1.45617 -0.55878,1.45616 8.53192,14.31027 8.53192,14.31026 0.62741,1.63499 0.6274,1.63499 -3.41723,4.84858 -3.41724,4.84858 -14.86333,22 -14.86334,22 -16.33122,24.45537 -16.33123,24.45537 0.29264,1.91045 0.29263,1.91044 11,3.88413 11,3.88412 50,16.00124 50,16.00124 5,1.95205 5,1.95204 1.25,0.0468 1.25,0.0468 z m -264.1964,-42.76762 9.80892,-13.25 11.87261,-16.5 11.87261,-16.5 6.15781,-8.5 6.15782,-8.5 11.4985,-16 11.49849,-16 10.28984,-14.25 10.28985,-14.25 0.62498,0.0465 0.62497,0.0465 14.49133,12.95352 14.49132,12.95352 h 1.64819 1.64819 l 10.97523,-16.75 10.97524,-16.75 9.05082,-14 9.05082,-14 2.13534,-2.71963 2.13534,-2.71963 12.14254,-0.28037 12.14254,-0.28037 13.32754,-20 13.32754,-20 18.22901,-28.28554 18.22901,-28.28554 2.08286,-2.62372 2.08286,-2.62373 30.83142,46.40927 30.83143,46.40926 3.5412,4.75 3.54121,4.75 h 10.81998 10.81999 l 21.51767,32.5 21.51768,32.5 h 2.19344 2.19345 l 13.20728,-13.18009 13.20728,-13.1801 2.0326,2.4301 2.0326,2.43009 24.20897,33 24.20897,33 8.3541,11.5 8.35411,11.5 16.0528,21.75 16.0528,21.75 h 1.41308 1.41309 l -0.25543,-88.08307 -0.25544,-88.08308 -34.5,-19.98174 -34.5,-19.98173 -14,-8.12019 -14,-8.12019 -14.5,-8.15882 -14.5,-8.15882 -62.5,-35.82221 -62.5,-35.82221 -7.7637,-4.33397 -7.7637,-4.33397 h -2.0866 -2.08661 l -10.14969,5.67779 -10.1497,5.67778 -13,7.45662 -13,7.45661 -9,4.96967 -9,4.96967 -23,13.28293 -23,13.28292 -24.5,13.94913 -24.5,13.94913 -30.5,17.54918 -30.5,17.54919 -23.5,13.54801 -23.5,13.548 -0.25809,87.81669 -0.25809,87.81668 0.47671,1.25 0.4767,1.25 h 0.52872 0.52872 z m 75.73282,-30.55043 14.96358,-9.80044 4.88196,-8.44956 4.88196,-8.44957 3.86804,-6.67483 3.86804,-6.67483 V 439.88 437.94863 l -3.58991,-4.70157 -3.58992,-4.70157 -2.05621,0.30777 -2.05621,0.30776 -19.85387,30.31206 -19.85388,30.31206 v 0.93794 0.93794 h 1.78642 1.78642 z m 380.46358,5.7752 v -1.02524 l -13.68497,-20.22476 -13.68498,-20.22477 -6.8601,-9.75 -6.86011,-9.75 h -1.29838 -1.29838 l -4.29635,5.09522 -4.29634,5.09521 1.63353,3.42555 1.63353,3.42555 8.02167,12.91246 8.02168,12.91246 7.2346,4.57853 7.2346,4.57854 8,4.90685 8,4.90685 1.25,0.0814 1.25,0.0814 z"
       id="path1" />
  </g>
</svg>
